<?xml version="1.0" standalone="no"?>
<!DOCTYPE svg PUBLIC "-//W3C//DTD SVG 20010904//EN"
 "http://www.w3.org/TR/2001/REC-SVG-20010904/DTD/svg10.dtd">
<svg version="1.0" xmlns="http://www.w3.org/2000/svg"
 width="900.000000pt" height="570.000000pt" viewBox="0 0 900.000000 570.000000"
 preserveAspectRatio="xMidYMid meet">
<metadata>
Created by potrace 1.10, written by Peter Selinger 2001-2011
</metadata>
<g transform="translate(0.000000,570.000000) scale(0.100000,-0.100000)"
  stroke="none">
<path d="M1120 5650 c-69 -5 -145 -13 -170 -19 -25 -6 -62 -10 -84 -11 -21 0
-59 -7 -85 -15 -97 -30 -154 -45 -175 -45 -11 0 -30 -7 -40 -15 -11 -8 -30
-15 -42 -15 -13 0 -25 -4 -28 -9 -3 -5 -23 -12 -43 -15 -21 -4 -53 -14 -70
-22 -18 -8 -47 -21 -65 -29 -45 -19 -235 -112 -280 -138 l-38 -21 0 -2648 0
-2648 4380 0 c4175 0 4381 1 4398 18 24 25 82 99 82 105 0 3 14 26 30 50 16
25 30 52 30 61 0 9 8 28 17 42 13 20 17 49 17 122 0 113 -19 164 -81 224 -34
33 -138 108 -150 108 -2 0 -29 12 -60 26 -72 33 -128 53 -178 65 -22 5 -49 13
-60 18 -28 12 -110 32 -174 43 -29 5 -62 13 -72 18 -10 6 -29 10 -44 10 -14 0
-38 6 -53 14 -15 7 -51 16 -80 19 -29 4 -68 10 -85 16 -87 26 -145 41 -172 44
-48 7 -159 38 -169 48 -6 5 -20 9 -32 9 -11 0 -52 12 -90 26 -38 14 -89 30
-113 35 -53 11 -104 26 -146 44 -16 7 -59 21 -95 31 -36 9 -76 23 -90 30 -14
6 -43 19 -65 27 -113 42 -309 126 -345 147 -8 5 -51 27 -95 50 -44 22 -98 51
-120 64 -22 12 -66 37 -97 54 -32 18 -77 46 -102 62 -24 17 -47 30 -50 30 -20
0 -440 299 -551 391 -11 10 -51 43 -90 76 -131 109 -249 218 -394 364 -135
135 -319 330 -362 386 -39 48 -95 115 -136 162 -18 20 -33 40 -33 45 0 5 -6
14 -14 20 -12 10 -118 146 -156 200 -22 30 -181 250 -237 326 -26 36 -76 107
-111 159 -34 52 -73 107 -85 122 -12 15 -56 75 -97 133 -94 132 -321 439 -330
446 -4 3 -33 39 -65 80 -31 41 -80 102 -109 135 -75 87 -395 403 -455 450 -29
22 -60 47 -68 55 -9 8 -24 19 -34 25 -9 5 -50 33 -90 60 -91 62 -91 62 -219
125 -135 67 -150 73 -240 100 -41 13 -79 27 -85 31 -5 5 -23 9 -40 9 -16 0
-46 5 -65 11 -76 23 -158 41 -230 49 -41 4 -102 13 -135 18 -84 15 -435 22
-585 12z"/>
</g>
</svg>
