<?xml version="1.0" standalone="no"?>
<!DOCTYPE svg PUBLIC "-//W3C//DTD SVG 20010904//EN"
 "http://www.w3.org/TR/2001/REC-SVG-20010904/DTD/svg10.dtd">
<svg version="1.0" xmlns="http://www.w3.org/2000/svg"
 width="801.000000pt" height="600.000000pt" viewBox="0 0 801.000000 600.000000"
 preserveAspectRatio="xMidYMid meet">
<metadata>
Created by potrace 1.10, written by Peter Selinger 2001-2011
</metadata>
<g transform="translate(0.000000,600.000000) scale(0.100000,-0.100000)"
  stroke="none">
<path d="M16 5923 c-3 -43 -9 -244 -12 -448 -6 -364 0 -543 28 -745 6 -47 14
-112 18 -145 15 -131 84 -459 137 -645 41 -144 121 -389 149 -455 7 -16 20
-50 29 -75 20 -51 42 -104 89 -212 30 -68 178 -366 211 -423 19 -33 39 -69 45
-80 5 -11 16 -29 22 -40 7 -10 24 -37 38 -60 13 -22 30 -49 37 -60 7 -11 15
-27 19 -35 4 -8 19 -31 34 -50 15 -19 29 -40 31 -46 4 -12 49 -75 180 -253
178 -242 529 -625 731 -796 38 -33 80 -69 92 -80 98 -88 411 -325 504 -380 9
-5 33 -22 52 -36 19 -14 42 -29 50 -32 8 -4 29 -16 45 -27 17 -11 39 -24 50
-30 11 -6 34 -19 50 -30 17 -11 37 -23 45 -27 8 -4 47 -25 85 -47 39 -23 142
-76 230 -120 153 -75 180 -88 260 -121 19 -8 50 -21 68 -29 17 -7 50 -20 72
-29 22 -8 60 -23 85 -32 47 -18 93 -35 158 -59 34 -12 83 -27 202 -61 25 -7
68 -20 95 -28 175 -52 502 -122 640 -137 33 -4 98 -12 145 -18 194 -26 324
-32 660 -32 336 0 466 6 660 32 47 6 112 14 145 18 137 15 459 84 638 136 26
8 68 20 95 28 143 41 170 50 205 62 64 24 110 41 157 59 25 9 63 24 85 32 53
20 138 55 205 85 19 8 118 57 220 107 102 50 191 91 198 91 9 0 12 542 12
2675 l0 2675 -3994 0 -3994 0 -6 -77z"/>
</g>
</svg>
